<svg xmlns="http://www.w3.org/2000/svg" width="1200" height="630" viewBox="0 0 1200 630">
  <defs>
    <linearGradient id="bg" x1="0" x2="1" y1="0" y2="1">
      <stop offset="0" stop-color="#0F1117"/>
      <stop offset="1" stop-color="#151A27"/>
    </linearGradient>
    <linearGradient id="glow" x1="0" x2="1" y1="0" y2="0">
      <stop offset="0" stop-color="#378ADD" stop-opacity="0.0"/>
      <stop offset="0.5" stop-color="#378ADD" stop-opacity="0.55"/>
      <stop offset="1" stop-color="#378ADD" stop-opacity="0.0"/>
    </linearGradient>
    <filter id="shadow" x="-20%" y="-20%" width="140%" height="140%">
      <feDropShadow dx="0" dy="10" stdDeviation="18" flood-color="#000000" flood-opacity="0.35"/>
    </filter>
  </defs>

  <rect width="1200" height="630" fill="url(#bg)"/>
  <rect x="70" y="110" width="1060" height="440" rx="18" fill="#1A1D27" stroke="#2A2D3E" stroke-width="2" filter="url(#shadow)"/>

  <rect x="70" y="110" width="1060" height="66" rx="18" fill="#13151F" stroke="#2A2D3E" stroke-width="2"/>
  <circle cx="106" cy="143" r="10" fill="#E24B4A"/>
  <circle cx="140" cy="143" r="10" fill="#EF9F27"/>
  <circle cx="174" cy="143" r="10" fill="#639922"/>

  <text x="220" y="149" fill="#E8E9F0" font-family="Inter, system-ui, -apple-system, Segoe UI, Arial, sans-serif" font-size="20" font-weight="700">
    Customer Success — Dashboard de Segmentação (K-Means)
  </text>
  <text x="220" y="170" fill="#8B8FA8" font-family="Inter, system-ui, -apple-system, Segoe UI, Arial, sans-serif" font-size="14" font-weight="500">
    Visão Geral • Metodologia • Clusters • Risco • Inferência
  </text>

  <rect x="110" y="210" width="220" height="300" rx="14" fill="#13151F" stroke="#2A2D3E" stroke-width="2"/>
  <rect x="140" y="242" width="160" height="34" rx="10" fill="#1E2233" stroke="#2E3350" stroke-width="2"/>
  <text x="160" y="265" fill="#E8E9F0" font-family="Inter, system-ui, -apple-system, Segoe UI, Arial, sans-serif" font-size="13" font-weight="700">Visão Geral</text>
  <rect x="140" y="292" width="160" height="34" rx="10" fill="transparent" stroke="#2A2D3E" stroke-width="2"/>
  <text x="160" y="315" fill="#B9BEE0" font-family="Inter, system-ui, -apple-system, Segoe UI, Arial, sans-serif" font-size="13" font-weight="600">Metodologia</text>
  <rect x="140" y="342" width="160" height="34" rx="10" fill="transparent" stroke="#2A2D3E" stroke-width="2"/>
  <text x="160" y="365" fill="#B9BEE0" font-family="Inter, system-ui, -apple-system, Segoe UI, Arial, sans-serif" font-size="13" font-weight="600">Clusters</text>
  <rect x="140" y="392" width="160" height="34" rx="10" fill="transparent" stroke="#2A2D3E" stroke-width="2"/>
  <text x="160" y="415" fill="#B9BEE0" font-family="Inter, system-ui, -apple-system, Segoe UI, Arial, sans-serif" font-size="13" font-weight="600">Recorrentes</text>
  <rect x="140" y="442" width="160" height="34" rx="10" fill="transparent" stroke="#2A2D3E" stroke-width="2"/>
  <text x="160" y="465" fill="#B9BEE0" font-family="Inter, system-ui, -apple-system, Segoe UI, Arial, sans-serif" font-size="13" font-weight="600">Novos</text>

  <rect x="360" y="210" width="740" height="120" rx="14" fill="#13151F" stroke="#2A2D3E" stroke-width="2"/>
  <text x="392" y="252" fill="#E8E9F0" font-family="Inter, system-ui, -apple-system, Segoe UI, Arial, sans-serif" font-size="16" font-weight="800">
    KPIs + distribuição por cluster + ranking valor/risco
  </text>
  <text x="392" y="278" fill="#8B8FA8" font-family="Inter, system-ui, -apple-system, Segoe UI, Arial, sans-serif" font-size="13" font-weight="500">
    Dashboard interativo com drill-down e busca de novos clientes
  </text>
  <rect x="392" y="298" width="676" height="6" rx="3" fill="url(#glow)"/>

  <rect x="360" y="350" width="380" height="200" rx="14" fill="#13151F" stroke="#2A2D3E" stroke-width="2"/>
  <text x="392" y="386" fill="#C8CAD8" font-family="Inter, system-ui, -apple-system, Segoe UI, Arial, sans-serif" font-size="13" font-weight="700">
    Seleção de K (Silhouette)
  </text>
  <line x1="392" y1="516" x2="706" y2="516" stroke="#2A2D3E" stroke-width="2"/>
  <line x1="392" y1="406" x2="392" y2="516" stroke="#2A2D3E" stroke-width="2"/>
  <rect x="410" y="426" width="34" height="90" rx="8" fill="#252B44" stroke="#2E3350" stroke-width="1.5"/>
  <rect x="456" y="446" width="34" height="70" rx="8" fill="#252B44" stroke="#2E3350" stroke-width="1.5"/>
  <rect x="502" y="462" width="34" height="54" rx="8" fill="#252B44" stroke="#2E3350" stroke-width="1.5"/>
  <rect x="548" y="470" width="34" height="46" rx="8" fill="#639922" stroke="#8AB83A" stroke-width="1.5"/>
  <rect x="594" y="476" width="34" height="40" rx="8" fill="#252B44" stroke="#2E3350" stroke-width="1.5"/>
  <rect x="640" y="482" width="34" height="34" rx="8" fill="#252B44" stroke="#2E3350" stroke-width="1.5"/>
  <text x="427" y="538" text-anchor="middle" fill="#8B8FA8" font-family="Inter, system-ui, -apple-system, Segoe UI, Arial, sans-serif" font-size="11" font-weight="700">K=3</text>
  <text x="473" y="538" text-anchor="middle" fill="#8B8FA8" font-family="Inter, system-ui, -apple-system, Segoe UI, Arial, sans-serif" font-size="11" font-weight="700">K=4</text>
  <text x="519" y="538" text-anchor="middle" fill="#8B8FA8" font-family="Inter, system-ui, -apple-system, Segoe UI, Arial, sans-serif" font-size="11" font-weight="700">K=5</text>
  <text x="565" y="538" text-anchor="middle" fill="#CFE89A" font-family="Inter, system-ui, -apple-system, Segoe UI, Arial, sans-serif" font-size="11" font-weight="800">K=6</text>
  <text x="611" y="538" text-anchor="middle" fill="#8B8FA8" font-family="Inter, system-ui, -apple-system, Segoe UI, Arial, sans-serif" font-size="11" font-weight="700">K=7</text>
  <text x="657" y="538" text-anchor="middle" fill="#8B8FA8" font-family="Inter, system-ui, -apple-system, Segoe UI, Arial, sans-serif" font-size="11" font-weight="700">K=8</text>

  <rect x="760" y="350" width="340" height="200" rx="14" fill="#13151F" stroke="#2A2D3E" stroke-width="2"/>
  <text x="792" y="386" fill="#C8CAD8" font-family="Inter, system-ui, -apple-system, Segoe UI, Arial, sans-serif" font-size="13" font-weight="700">
    Ranking valor/risco
  </text>
  <rect x="792" y="406" width="276" height="16" rx="8" fill="#0F1117" stroke="#2A2D3E" stroke-width="2"/>
  <rect x="792" y="406" width="210" height="16" rx="8" fill="#639922"/>
  <rect x="792" y="436" width="276" height="16" rx="8" fill="#0F1117" stroke="#2A2D3E" stroke-width="2"/>
  <rect x="792" y="436" width="150" height="16" rx="8" fill="#7F77DD"/>
  <rect x="792" y="466" width="276" height="16" rx="8" fill="#0F1117" stroke="#2A2D3E" stroke-width="2"/>
  <rect x="792" y="466" width="90" height="16" rx="8" fill="#D85A30"/>
  <rect x="792" y="496" width="276" height="16" rx="8" fill="#0F1117" stroke="#2A2D3E" stroke-width="2"/>
  <rect x="792" y="496" width="40" height="16" rx="8" fill="#888780"/>
  <rect x="792" y="526" width="276" height="16" rx="8" fill="#0F1117" stroke="#2A2D3E" stroke-width="2"/>
  <rect x="792" y="526" width="28" height="16" rx="8" fill="#E24B4A"/>

  <text x="70" y="595" fill="#8B8FA8" font-family="Inter, system-ui, -apple-system, Segoe UI, Arial, sans-serif" font-size="12" font-weight="600">
    Clique para abrir o dashboard
  </text>
</svg>
